<svg t="1705931882114" class="icon" viewBox="0 0 1024 1024" version="1.1" xmlns="http://www.w3.org/2000/svg" p-id="1608" width="200" height="200"><path d="M501.205333 77.610667c178.432 1.578667 249.514667 58.410667 304.768 118.4 113.706667 127.914667 90.026667 238.506667 90.026667 233.728-1.578667 66.346667-93.184 186.368-93.184 186.368-72.618667 104.234667-25.258667 235.306667-25.258667 235.306666-146.858667 33.152-296.874667 145.28-296.874666 145.28-6.314667-31.573333-56.874667-113.706667-56.874667-113.706666-29.994667-36.309333-78.933333-23.68-105.813333-20.522667-69.461333 8.661333-91.178667-9.173333-94.293334-12.202667l-0.426666-0.426666c-17.408-9.472-9.472-52.138667-9.472-52.138667 6.314667-22.101333-3.157333-33.152-9.514667-41.045333-15.786667-23.68-6.314667-34.730667-6.314667-34.730667 4.736-6.314667 1.578667-9.472 1.578667-9.472-18.944-6.314667-20.48-15.786667-20.48-15.786667v-33.194666c2.645333-20.053333-4.864-24.234667-7.253333-25.088l-0.682667-0.170667c-37.888-1.408-40.874667-22.784-41.045333-27.52v-0.896c-0.682667-6.101333 8.192-26.112 18.602666-47.018667l7.04-13.909333c11.861333-22.912 23.296-43.306667 23.296-43.306667 23.68-45.781333-11.050667-72.661333-12.629333-96.341333-11.050667-108.970667 25.258667-176.853333 75.818667-228.992C325.888 93.44 431.701333 77.653333 501.205333 77.653333z m190.549334 191.914666a29.312 29.312 0 0 0-29.312 29.354667v329.984a29.312 29.312 0 1 0 58.666666 0V298.88a29.312 29.312 0 0 0-29.354666-29.354667z m-264.832 18.517334l-121.728 305.92a29.354667 29.354667 0 0 0 54.528 21.76l29.866666-75.093334 1.536 0.256h141.952l34.986667 76.202667a29.312 29.312 0 1 0 53.333333-24.490667l-140.586666-305.92a29.312 29.312 0 0 0-53.888 1.365334z" p-id="1609"></path><path d="M412.8 482.218667l43.349333-108.8 49.962667 108.8z" p-id="1610"></path></svg>
