<svg t="1705991846066" class="icon" viewBox="0 0 1024 1024" version="1.1" xmlns="http://www.w3.org/2000/svg" p-id="3274" width="200" height="200"><path d="M511.999693 1023.999386c282.76719 0 511.999693-229.232502 511.999693-511.999693S794.766883 0 511.999693 0 0 229.232502 0 511.999693s229.232502 511.999693 511.999693 511.999693z" p-id="3275"></path><path d="M199.67988 527.154884C160.972703 559.103665 102.399939 614.399631 94.003144 689.970786c-10.444794 98.918341 25.599985 143.359914 79.257552 174.079896a614.399631 614.399631 0 0 0 89.907146 44.646373l-63.487962-381.542171z" fill="#C5CFEF" p-id="3276"></path><path d="M222.822266 562.994862c-28.467183 20.479988-78.233553 31.334381-86.425548 124.518325A267.878239 267.878239 0 0 0 154.419107 819.199508a144.588713 144.588713 0 0 0 81.919951 77.414354c27.647983 11.878393 33.58718-150.937509 33.58718-150.937509l-47.103972-182.681491z" fill="#AABDE2" p-id="3277"></path><path d="M835.788299 465.91972c42.188775 27.238384 107.110336 75.366355 122.879926 149.708711 21.708787 96.870342-14.131192 160.767904-64.102362 198.246281s-79.052753 38.297577-79.052752 38.297577l20.275188-386.252569z" fill="#C5CFEF" p-id="3278"></path><path d="M816.94671 504.217297c30.719982 17.612789 81.919951 22.118387 99.94234 113.663932a268.287839 268.287839 0 0 1-2.662399 133.11992 145.817513 145.817513 0 0 1-71.884756 86.220749c-26.214384 14.950391-50.58557-146.227112-50.58557-146.227113l25.190385-186.777488z" fill="#AABDE2" p-id="3279"></path><path d="M573.439656 247.603051c-6.348796-26.419184-31.743981-102.399939-87.449548-116.940729-43.827174-10.854393-75.980754 16.38399-67.788759 36.044778 8.191995 19.660788 49.97117 33.79198 64.307161 50.17597a115.097531 115.097531 0 0 1 32.153581 45.055973c8.806395 23.551986 63.487962 1.638399 58.777565-14.335992z" fill="#EEF3FF" p-id="3280"></path><path d="M484.966109 233.06226A286.719828 286.719828 0 0 0 417.38215 184.319889 75.775955 75.775955 0 0 0 368.639779 173.670296a27.852783 27.852783 0 0 0-7.372796 46.694372c18.022389 20.479988 43.007974 14.335991 57.958365 20.479987a97.075142 97.075142 0 0 1 37.068778 20.479988c14.745591 15.564791 37.478378-18.431989 28.671983-28.262383z" fill="#E5ECF9" p-id="3281"></path><path d="M423.730946 256.819046a132.300721 132.300721 0 0 0-48.332771-17.61279 79.667152 79.667152 0 0 0-39.731176 2.252799c-20.479988 8.396795-22.323187 21.913587-17.20319 30.719982 12.083193 20.479988 34.611179 0 46.079972 2.252798 9.687034-0.4096 19.292148 1.781759 27.852784 6.348797 9.420794 5.939196 37.683177-19.455988 31.334381-23.961586z" fill="#DCE6F4" p-id="3282"></path><path d="M813.669912 642.047615c50.54461-3.932158 86.835148-67.09244 81.100751-141.066156-5.754877-73.973716-51.363809-130.764722-101.887939-126.832563-50.52413 3.911678-86.835148 67.07196-81.080271 141.045675 5.734397 73.973716 51.363809 130.764722 101.887939 126.853044z" fill="#0E1F72" p-id="3283"></path><path d="M808.549915 652.492409A91.566025 91.566025 0 0 1 737.279558 614.399631a180.428692 180.428692 0 0 1-36.249579-98.303941c-6.143996-79.667152 34.406379-147.865511 90.316746-152.166308a90.111946 90.111946 0 0 1 76.595154 38.092777 179.199892 179.199892 0 0 1 36.249578 98.303941c6.348796 79.462352-34.406379 147.660711-90.316745 151.961509l-5.324797 0.2048zM798.719521 384.204569h-4.095998c-44.851173 3.481598-76.799954 61.439963-71.679957 130.047922a159.129505 159.129505 0 0 0 31.948781 87.039948 70.860757 70.860757 0 0 0 58.982365 30.515182c44.851173-3.481598 77.004754-61.439963 71.679957-130.252722a159.743904 159.743904 0 0 0-31.948781-87.039948A71.884757 71.884757 0 0 0 798.719521 384.204569z" fill="#295CC1" p-id="3284"></path><path d="M859.176444 888.319467A510.176974 510.176974 0 0 1 511.999693 1023.999386a509.664974 509.664974 0 0 1-296.099663-94.248904C175.267735 857.763325 151.551909 770.948657 151.551909 677.477994c0-248.831851 168.161179-450.55973 375.602975-450.55973s375.602975 201.727879 375.602974 450.55973c0 76.185554-15.769591 147.926951-43.581414 210.841473z" fill="#EEF4FF" p-id="3285"></path><path d="M151.551909 678.297193v-0.819199c0-248.831851 168.161179-450.55973 375.602975-450.55973 202.874758 0 368.189219 192.962444 375.357214 434.237179-52.531168 168.447899-202.076039 300.78958-378.429212 300.78958-170.332058 0-315.535171-123.432886-372.530977-283.64783z" fill="#FFFFFF" p-id="3286"></path><path d="M413.490952 608.255635c20.479988 16.79359 53.555168 29.409262 143.359914 23.551986 51.814369-3.379198 103.157698-12.083193 153.190308-26.009584 27.238384-11.878393 61.480923-27.709423 86.630348-50.17597 16.62975-17.44895 26.214384-32.97278 29.491182-63.897562 3.276798-30.924781-17.20319-51.404769-17.203189-51.404769l-391.167766 135.987118-4.300797 31.948781z" fill="#BDC4DB" p-id="3287"></path><path d="M536.575678 804.453917a402.575118 402.575118 0 0 1-136.601518-23.961585 327.679803 327.679803 0 0 1-138.854317-98.303941 10.649594 10.649594 0 0 1 1.433599-14.540792 10.014714 10.014714 0 0 1 14.335992 1.4336 305.356617 305.356617 0 0 0 130.252722 92.159944 355.716907 355.716907 0 0 0 191.487885 16.38399 10.444794 10.444794 0 0 1 12.697592 7.167996 10.239994 10.239994 0 0 1-7.372795 12.492793 270.683998 270.683998 0 0 1-67.37916 7.167995z" fill="#2B3CA0" p-id="3288"></path><path d="M236.523378 697.405022c57.384926-4.567037 98.529221-75.816915 91.914185-159.129505-6.635516-83.33307-58.531805-147.169192-115.916731-142.602154-57.405406 4.567037-98.549701 75.816915-91.914184 159.129504 6.635516 83.33307 58.531805 147.169192 115.91673 142.602155z" fill="#364F96" p-id="3289"></path><path d="M218.152829 671.948397c48.373731-3.829758 83.08731-63.631322 77.516754-133.52952-5.570557-69.898198-49.29533-123.453366-97.648582-119.603128-48.373731 3.850238-83.08731 63.631322-77.516753 133.52952 5.570557 69.918678 49.27485 123.473846 97.648581 119.603128z" fill="#0F1E4F" p-id="3290"></path><path d="M359.218984 460.799724c26.009584-54.271967 114.892731-85.606349 222.617467-95.846343 107.724735-10.239994 156.262306 10.649594 186.163088 27.443184a109.158335 109.158335 0 0 1 46.284772 97.689541 110.182334 110.182334 0 0 1-63.692761 76.799954 374.374175 374.374175 0 0 1-139.468717 40.959975 427.007744 427.007744 0 0 1-163.839901 0c-48.537571-13.107192-66.96956-27.443184-80.895952-50.790369a102.399939 102.399939 0 0 1-7.167996-96.255942z" fill="#061D97" p-id="3291"></path><path d="M381.542171 566.88606s-20.479988-55.091167-10.854393-81.919951a109.957054 109.957054 0 0 1 63.078362-61.439963A435.138299 435.138299 0 0 1 555.622067 389.119767a487.587547 487.587547 0 0 1 147.455911 0 157.491106 157.491106 0 0 1 81.919951 38.911976 143.400874 143.400874 0 0 1 22.937586 37.478378l-2.047999-29.900782-34.201579-39.321577-65.535961-24.166385-127.590323-3.481598-111.615933 22.732786-79.667152 40.959976-31.129582 47.308771a214.323071 214.323071 0 0 0 0 45.055973c6.963196 14.909431 15.482871 29.040623 25.395185 42.188775z" fill="#002E7F" p-id="3292"></path><path d="M486.809308 628.530823a182.435731 182.435731 0 0 1-46.284772-6.348796c-48.947171-14.335991-65.740761-31.129581-81.919951-59.187165a130.252722 130.252722 0 0 1-8.396795-105.881536c34.815979-72.499157 159.539104-94.617543 230.809461-102.399939 106.291136-10.035194 156.671906 8.806395 192.102285 28.671983a119.807928 119.807928 0 0 1 51.404769 108.953535 122.879926 122.879926 0 0 1-68.812758 83.558349 383.16009 383.16009 0 0 1-143.359914 42.598375c-41.492455 6.881276-83.47643 10.239994-125.542325 10.035194zM368.639779 466.12452a107.274176 107.274176 0 0 0 8.396795 86.835148c11.673593 20.479988 22.937586 36.044778 69.222358 49.56157 29.695982 8.806395 83.35355 7.577595 163.839902-3.481597a363.519782 363.519782 0 0 0 135.987118-40.959976c43.417574-23.756786 53.862368-48.742371 58.572765-70.041558a101.191619 101.191619 0 0 0-40.959975-86.630348c-32.76798-18.227189-79.667152-35.635179-180.223892-26.009584-114.073532 10.854393-192.102285 43.622374-214.425471 90.111946l-0.4096 0.614399z" fill="#D8DCEA" p-id="3293"></path><path d="M399.68744 581.160611c10.014714 7.823355 24.186865 14.827511 46.571492 21.360627 29.695982 8.806395 83.35355 7.577595 163.839902-3.481597a363.519782 363.519782 0 0 0 135.987118-40.959976c43.417574-23.756786 53.862368-48.742371 58.572765-70.041558 0.14336-2.764798 0.16384-5.529597 0.08192-8.314875 0.942079 0.7168 1.372159 2.129919 1.146879 4.423678-3.071998 27.852783-10.649594 48.332771-49.76637 75.161554A331.939641 331.939641 0 0 1 655.359607 596.786842a699.76022 699.76022 0 0 1-171.827097 16.17919c-61.235163-5.734397-84.172749-31.743981-84.17275-31.743981l0.32768-0.06144z" fill="#F3F6FF" p-id="3294"></path><path d="M363.622182 510.443214c-1.454079-14.950391 0.26624-30.064622 5.017597-44.318694l0.4096-0.614399c22.323187-46.489572 100.35194-79.257552 214.425471-90.111946 100.55674-9.625594 147.455912 7.782395 180.223892 26.009584 3.420158 2.539518 6.676476 5.263357 9.748474 8.191995a15.032311 15.032311 0 0 0-3.399678-4.300797 146.841512 146.841512 0 0 0-86.220748-35.635179 582.000291 582.000291 0 0 0-132.300721 3.891198c-67.37916 8.806395-131.276721 34.406379-149.29911 49.76637-22.937586 18.841589-40.959975 36.044778-40.959976 69.631958a69.017559 69.017559 0 0 0 5.263357 33.99678 107.212736 107.212736 0 0 1-2.908158-16.50687z" fill="#F8FAFF" p-id="3295"></path><path d="M445.439733 495.206103a52.019169 52.019169 0 0 1 47.103971-52.019169c44.031974-5.529597 67.17436 25.804785 61.439964 46.899172-5.734397 21.094387-51.404769 38.911977-75.775955 36.044778a34.406379 34.406379 0 0 1-32.76798-30.924781zM764.927541 462.642922a48.947171 48.947171 0 0 0-54.476767-38.502376c-43.212774 3.071998-60.211164 35.839978-52.019169 54.067167 8.191995 18.227189 56.115166 25.804785 79.257552 18.636789a33.38238 33.38238 0 0 0 27.238384-34.20158z" fill="#FFFFFF" p-id="3296"></path><path d="M180.223892 593.919644c-14.950391 0-28.467183-18.431989-30.310382-40.959976a51.609569 51.609569 0 0 1 10.239994-37.068778 20.479988 20.479988 0 0 1 14.745591-8.396794c16.38399 0 29.900782 18.431989 31.743981 40.959975a51.609569 51.609569 0 0 1-10.035194 37.068778 21.708787 21.708787 0 0 1-14.950391 8.396795H180.223892z" fill="#D2DFFF" p-id="3297"></path><path d="M176.332694 511.999693c10.854393 0 23.551986 14.745591 25.190385 36.454378a47.103972 47.103972 0 0 1-8.806395 33.38238 18.227189 18.227189 0 0 1-11.468793 6.553596c-10.649594 0-23.347186-14.745591-25.190385-36.454378A46.284772 46.284772 0 0 1 163.839902 518.553289a17.20319 17.20319 0 0 1 11.468793-6.553596h1.023999z m-1.023999-10.239994h-0.8192c-18.431989 1.433599-31.129581 24.371185-29.695982 51.199969 1.433599 26.828784 17.817589 45.875172 35.430379 45.875173h1.843199c18.431989-1.433599 31.743981-24.371185 29.695982-50.99517-2.047999-26.623984-17.612789-46.079972-35.430379-46.079972h-1.023999z" fill="#B0CEEA" p-id="3298"></path><path d="M638.770817 809.369114l-35.839979 6.143997a28.057583 28.057583 0 0 1-32.15358-22.527987A27.586543 27.586543 0 0 1 593.919644 761.241143l36.044778-5.939196A27.647983 27.647983 0 0 1 661.503603 778.239533a27.279344 27.279344 0 0 1-22.732786 31.129581z" fill="#0F1E4F" p-id="3299"></path><path d="M569.036459 650.07577l-1.2288 0.22528c-4.956157 0.921599-8.130555 6.266876-7.065595 11.939833l14.417911 77.946833c1.064959 5.652477 5.939196 9.502714 10.895353 8.601595l1.2288-0.24576c4.956157-0.921599 8.130555-6.246396 7.086075-11.919353l-14.438391-77.946833c-1.064959-5.672957-5.939196-9.523194-10.895353-8.601595zM599.44924 653.127288l-1.228799 0.24576c-4.956157 0.901119-8.130555 6.246396-7.086076 11.919353l11.345914 61.235163c1.044479 5.652477 5.918716 9.523194 10.874873 8.601595l1.228799-0.24576c4.956157-0.901119 8.130555-6.266876 7.086076-11.939833l-11.345913-61.214683c-1.044479-5.672957-5.939196-9.523194-10.874874-8.601595zM636.374658 655.871606l-1.228799 0.2048c-4.976637 0.942079-8.130555 6.287356-7.086076 11.960313l7.864315 42.475495c1.044479 5.672957 5.939196 9.523194 10.874874 8.601595l1.228799-0.2048c4.976637-0.942079 8.130555-6.287356 7.086076-11.960313l-7.864315-42.475495c-1.064959-5.672957-5.939196-9.523194-10.874874-8.601595zM669.572718 638.811777l-1.228799 0.2048c-4.915197 0.921599-8.089595 6.225916-7.065596 11.878392l11.141114 60.907484c1.023999 5.652477 5.857276 9.482234 10.792953 8.601595l1.228799-0.24576c4.935677-0.901119 8.110075-6.205436 7.065596-11.837433l-11.120633-60.927963c-1.023999-5.631997-5.877756-9.482234-10.813434-8.581115zM703.549018 625.233545l-1.228799 0.22528c-4.956157 0.921599-8.130555 6.266876-7.086076 11.939833l14.438391 77.926353c1.044479 5.672957 5.918716 9.523194 10.874874 8.601595l1.228799-0.2048c4.956157-0.942079 8.130555-6.287356 7.086076-11.960313l-14.438392-77.926353c-1.044479-5.672957-5.918716-9.523194-10.874873-8.601595z" fill="#95BAEF" p-id="3300"></path></svg>
